# xmcd
#
# Track frame offsets:
#	150
#	12624
#	23597
#	31280
#	41093
#	52300
#	64220
#	76836
#	86709
#	99784
#	120895
#	134344
#	143732
#	156295
#	174662
#	190343
#	201792
#	215054
#	225480
#	242355
#
# Disc length: 3404 seconds
#
# Revision: 2
# Processed by: cddbd v1.5.2PL0 Copyright (c) Steve Scherf et al.
# Submitted via: EasyCDDAExtractor 16.1.0.1
#
DISCID=0d0d4a14
DTITLE=Various Country - Country Gold CD5
DYEAR=2006
DGENRE=Country
TTITLE0=Ferlin Husky - Don't Fall Asleep At The Wheel
TTITLE1=Faron Young - Live Fast Love Hard Die Young
TTITLE2=Carl Perkins - Glad All Over
TTITLE3=Patsy Cline - Turn The Cards Slowly
TTITLE4=Barbara Fairchild - I'm Giving Up
TTITLE5=Dolly Parton - Little Orphans
TTITLE6=Patsy Cline - Yes I Understand
TTITLE7=Johnny Cash - Hey Porter
TTITLE8=Ralph Stanley - White Dove
TTITLE9=Tanya Tucker - Baby I'm Yours
TTITLE10=Carl Perkins - Country Soul
TTITLE11=Oak Ridge Quartett - I Know My Savior Is Here
TTITLE12=Kenny Rogers - Love Woman
TTITLE13=The Osmond Brothers - If Every Man Had A Woman Like You
TTITLE14=Merle Haggard - Today I Started Loving You Again
TTITLE15=Bill Monroe - Orange Blossom Special
TTITLE16=Ferlin Husky - Good Ole Country Music Is Here
TTITLE17=Merle Haggard - Ida Red
TTITLE18=Willie Nelson - I Let My Mind Wonder
TTITLE19=Kathy Mattea - Ball And Chain
EXTD=
EXTT0=
EXTT1=
EXTT2=
EXTT3=
EXTT4=
EXTT5=
EXTT6=
EXTT7=
EXTT8=
EXTT9=
EXTT10=
EXTT11=
EXTT12=
EXTT13=
EXTT14=
EXTT15=
EXTT16=
EXTT17=
EXTT18=
EXTT19=
PLAYORDER=
